#define shade_width  6
#define shade_height 6
static unsigned char shade_bits[] = {
 0xc7,0xc3,0xc1,0xe0,0xf0,0xf8};
